<svg xmlns="http://www.w3.org/2000/svg" xmlns:xlink="http://www.w3.org/1999/xlink" width="149.052" height="45.109" viewBox="0 0 149.052 45.109"><defs><linearGradient id="a" x1="0.979" y1="-0.029" x2="0.177" y2="0.887" gradientUnits="objectBoundingBox"><stop offset="0.09" stop-color="#ff980e"/><stop offset="0.18" stop-color="#ff8b16"/><stop offset="0.36" stop-color="#ff672a"/><stop offset="0.56" stop-color="#ff3647"/><stop offset="0.94" stop-color="#e31587"/></linearGradient></defs><path d="M246.331,21.385c-.967-2.378-2.854-4.79-4.39-5.624a.8.8,0,0,0-.813,0,.768.768,0,0,0-.317.759c-.642-.834-1.317-1.594-2-2.386a39.376,39.376,0,0,1-3.959-5.165l-.472-.776-.2-.384a3.444,3.444,0,0,1-.244-.634.824.824,0,0,0-.642-.659.642.642,0,0,0-.252,0,.694.694,0,0,0-.309.092,16.146,16.146,0,0,0-7.317,11.5,7.661,7.661,0,0,0-1.87.551.762.762,0,0,0-.487.853.745.745,0,0,0,.747.624.621.621,0,0,0,.293-.067,5.929,5.929,0,0,1,1.52-.434,17.569,17.569,0,0,1,1.862,0h.6l.553.092h.106l.447.108.163.05.447.142h.089l.52.209.13.058.537.25.488.275.594.392.374.275.073.058.52.442.211.2-.325-.067h-.065l-.293-.05h-1.61l-.333.042a.815.815,0,0,0-.6.459.759.759,0,0,0,.358.968,7.8,7.8,0,0,1,3.732,9.037c-.065.25-.138.5-.22.734v.042l-.26.651a.214.214,0,0,0,0,.058,6.359,6.359,0,0,1-.3.576.351.351,0,0,1,0,.075c-.106.175-.22.35-.333.509l-.049.075-.423.526c-.13.142-.26.284-.4.409l-.065.058c-.138.134-.285.25-.431.367l-.057.05c-.154.108-.3.217-.463.317h-.057c-.154.1-.317.192-.488.284l-.683.35-.553.209-.585.184-.545.117h-.057l-.528.083h-.073l-.52.05h-1.073a8.089,8.089,0,0,1-2.439-.476l-.553-.234a2.721,2.721,0,0,1-.317-.15,8.067,8.067,0,0,1-4.4-6.058c.211-.534,1.39-2.912,6-2.912.976,0,2.919-1.919,3.171-2.862v-.234c0-.5-.276-.626-1.358-1.168a17.329,17.329,0,0,1-3.8-2.336l-.22-.217-.276-.275-.236-.242a3.417,3.417,0,0,0-.528-.643,5.986,5.986,0,0,0-.561-.434,9.208,9.208,0,0,1,.041-4.272.727.727,0,0,0-1.008-.918,14.91,14.91,0,0,0-4.333,3.187,17.163,17.163,0,0,1-.26-3.763.608.608,0,0,0,0-.209.746.746,0,0,0-.455-.542c-.187-.083-.455-.192-1.374.451a15.357,15.357,0,0,0-2.1,1.836,18.659,18.659,0,0,0-4.846,9v.15l-.211,1.36a18.6,18.6,0,0,0-.341,2.971v.108A21.491,21.491,0,0,0,224.995,51.4a21.263,21.263,0,0,0,22.67-18.352c0-.2.049-.4.065-.609v-.209A22.451,22.451,0,0,0,246.331,21.385Zm-15.293-2.5h-.089q-.256-.111-.52-.2l-.187-.067a4.6,4.6,0,0,0-.48-.15h-.154q-.31-.088-.626-.15h-.122l-.512-.159h-.2l-.528-.058H226.9a15.181,15.181,0,0,1,3.667-7.735.927.927,0,0,1-.057.2,1.2,1.2,0,0,0-.057.184q-.048.144-.081.292l-.049.175a1.665,1.665,0,0,1-.081.334c-.024.108,0,.1,0,.15l-.1.492-.049.309v1.11a.351.351,0,0,0,0,.092v1.135a.266.266,0,0,1,0,.083V15.8a1.006,1.006,0,0,0,.065.384,1.952,1.952,0,0,0,.089.409V16.7a1.59,1.59,0,0,0,.081.325v.092a1.375,1.375,0,0,0,.13.417v.083l.122.342.049.117.154.392c.057.142.13.275.2.417v.05Zm.4-5.424a2.083,2.083,0,0,1,.041-.5.752.752,0,0,0,0-.134,3.027,3.027,0,0,1,.057-.392c.016-.125,0-.067,0-.1l.089-.451v-.108a1.818,1.818,0,0,1,.081-.35c.024-.117,0-.075,0-.117l.122-.409a.12.12,0,0,1,0-.05,1.059,1.059,0,0,1,.114-.342l.041-.117.114-.3V10.02l.146-.334a.4.4,0,0,1,0-.083,2.189,2.189,0,0,1,.114-.242V9.286l.146-.275V8.96l.114-.209V8.643c0-.05.1.192.163.292l.488.834a41.222,41.222,0,0,0,4.439,5.357,26.372,26.372,0,0,1,5.187,7.8,6.441,6.441,0,0,1,.081.693,1.088,1.088,0,0,1,0,.167v1.585a1.744,1.744,0,0,1-.057.5q.006.121,0,.242a3.6,3.6,0,0,1-.122.709c-.049.25-.114.492-.179.726l-.228.734-.1.259-.187.476-.106.242-.333.709c-.122.234-.244.459-.382.684l-.1.175-.325.509-.154.225-.325.451a2.056,2.056,0,0,1-.171.225c-.114.159-.244.309-.374.467l-.146.175a.19.19,0,0,1-.057.058,1.273,1.273,0,0,1,.057-.459c.057-.15,0-.083,0-.125v-.392a.492.492,0,0,1,0-.108V30.2a.163.163,0,0,1,0-.067,1.273,1.273,0,0,0-.057-.459c-.057-.15,0-.092,0-.134a9.814,9.814,0,0,0-.26-1.06.646.646,0,0,0,0-.134,1.619,1.619,0,0,0-.138-.467V27.8q-.081-.259-.2-.526l-.122-.083q-.087-.226-.2-.442l-.049-.1-.276-.517-.057-.1-.268-.426-.081-.117q-.168-.254-.358-.492l-.057-.067-.358-.426a1.525,1.525,0,0,1-.114-.117c-.146-.159-.3-.317-.463-.467l-.163-.134h-.041l-.049-.042V23.7q-.163-.3-.35-.576a.715.715,0,0,0-.057-.083c-.13-.192-.26-.384-.406-.576l-.049-.058a12.053,12.053,0,0,0-1.016-1.177,9.793,9.793,0,0,1-3.073-7.768Zm1.138,24.373.537-.476.049-.05.472-.5.049-.067c.146-.167.285-.342.415-.517l.049-.075c.13-.175.252-.359.366-.542l.041-.067q.171-.284.317-.576a.214.214,0,0,0,0-.058,6.56,6.56,0,0,0,.309-.584v-.05l.236-.626.2-.651a9.533,9.533,0,0,0-2.325-9.179,6.507,6.507,0,0,1,1.984.935l.073.058c.089.075.179.142.244.209l.374.375.114.117.22.259.187.209.179.234a1.2,1.2,0,0,1,.114.167l.154.225.106.167.138.225a1.784,1.784,0,0,1,.089.175l.122.234.081.175.1.225.073.175a.692.692,0,0,0,.089.234c.033.075,0,.117.057.167s.049.159.073.242a1,1,0,0,1,.049.167,1.174,1.174,0,0,0,.065.242.511.511,0,0,1,0,.159l.049.267v.134l.049.325v.459a2.573,2.573,0,0,1,0,.35.485.485,0,0,0,0,.108v.634a.7.7,0,0,1,0,.134,2.086,2.086,0,0,1,0,.225v.134a1.949,1.949,0,0,0,0,.217v.334a.5.5,0,0,1,.041.142v.209a.426.426,0,0,0,0,.1v.217a.309.309,0,0,1,0,.083,1.571,1.571,0,0,1-.041.209v.017l-.049.217v.042a8.029,8.029,0,0,1-.236.834l-.049.15a.117.117,0,0,1-.041.108l-.325.259-.293.225a3.845,3.845,0,0,1-.374.267l-.268.2-.382.25-.26.167-.634.384-.39.209-.236.134-.626.3-.358.15-.675.275-.187.067ZM224.6,26.809l-.146.1-.122.058H223.4l-.634.058h-.114a3.069,3.069,0,0,0-.626.1h-.154l-.5.117h-.081c-.179.05-.358.1-.52.159h-.13l-.406.159h-.081l-.528.259L219.3,28l-.081.05a3.555,3.555,0,0,0-.341.234l-.073.05-.26.2-.065.058-.276.242-.252.259-.049.058-.211.242v.042l-.154.2V29.7a1.764,1.764,0,0,0-.146.225l-.114.184v-.4a.215.215,0,0,0,0-.067V28.419a.753.753,0,0,0-.74-.843,4.424,4.424,0,0,1-3.829-2.061,6.989,6.989,0,0,1,6.187.092l.407.184.154.058.26.108.179.058.219.083.187.058.22.058a1.234,1.234,0,0,0,.187.05l.2.058.2.042h3.675Zm-5.748-9.855a10.632,10.632,0,0,0,0,2.27h-.041a4.089,4.089,0,0,0-.488-.15h-.089l-.455-.159h-.057c-.366-.067-.724-.117-1.057-.159A13.989,13.989,0,0,1,218.851,16.954Zm-11.642,12.8a7.543,7.543,0,0,1,0-2.019c.057-.417.114-.834.179-1.152v-.05a12.326,12.326,0,0,1,.187-1.235v-.134a16.907,16.907,0,0,1,2.6-6l.049-.075a17.266,17.266,0,0,1,1.862-2.245,15.4,15.4,0,0,1,1.382-1.268c0,1.385.187,3.413.886,4.314a.745.745,0,0,0,.171.15l.081.05a.479.479,0,0,0,.154.05.515.515,0,0,0,.163,0h1.187a6.925,6.925,0,0,1,2.968.826l.406.275c.187.134.325.234.472.359s.569.542,1.146,1.118l.211.217.366.334.4.309.325.234h.073l.374.25.106.058.39.242.48.275.39.209h.081l.358.192h-2a2.485,2.485,0,0,1-.65-.058h-.8l-.171.008h-.146l-.2-.058-.146-.05-.211-.075-.138-.042-.236-.1h-.122l-.423-.234a8.236,8.236,0,0,0-8.26.375.754.754,0,0,0-.252.893,5.933,5.933,0,0,0,4.732,3.538,10.348,10.348,0,0,0,6.114,9.421l.268.134a11.59,11.59,0,0,0,5.829,1.385h.179a15.61,15.61,0,0,0,6.285-1.452l.667-.325.276-.142.415-.225.366-.217.455-.159.724-.476.5-.359.236-.175c.252-.184.5-.384.748-.584l.081-.092.764-.693q.333-.3.634-.626l.089-.092.634-.709.545-.684a1.527,1.527,0,0,1,.106-.134l.5-.7.057-.092c.154-.234.309-.476.447-.718a.366.366,0,0,0,0-.058c.146-.25.285-.5.415-.759l.057-.117c.13-.25.252-.517.366-.776v-.058q.171-.417.317-.834.106-.284.2-.576v2a1.548,1.548,0,0,1,0,.184,7.413,7.413,0,0,1-.073.743v.15a3.423,3.423,0,0,1-.1.634v.159l-.138.7v.159l-.138.592a1.071,1.071,0,0,0,0,.134l-.236.8-.187.567v.075l-.228.592-.049.134-.244.559a16.808,16.808,0,0,1-16.179,9.679A20.049,20.049,0,0,1,207.25,29.788Zm39.025,2.3v.217a1.462,1.462,0,0,1-.065.542A19.956,19.956,0,0,1,229.5,49.3a19.6,19.6,0,0,1-20.443-11.138l.122.167.122.192.48.651.488.617.146.175.415.484.122.134q.268.3.537.576l.756.734c.187.184.382.359.577.526l.106.092q.252.225.512.426l.187.15.642.492.642.451.2.125c.171.125.35.234.537.35a.954.954,0,0,0,.154.092c.22.142.447.275.675.4l.179.1.553.292.2.1.715.342.13.058.618.267.211.083.715.267h.041c.252.092.512.175.764.25l.219.067.642.184h.154l.813.184.2.042.642.117h.2c.268,0,.537.083.813.108h.138l.691.067h.228a6.514,6.514,0,0,1,.813.05h.577a18.243,18.243,0,0,0,15.9-8.486,18.752,18.752,0,0,0,1.041-1.936,20.034,20.034,0,0,0,.764-14.319.752.752,0,0,0-.081-.25,20.246,20.246,0,0,0-.732-3.054,12.8,12.8,0,0,1,1.341,2.445A20.845,20.845,0,0,1,246.234,32.057Z" transform="translate(-205.629 -6.503)" fill="url(#a)"/><path d="M54,44.46v-7.7h2.651a3.192,3.192,0,0,1,1.5.308,2.027,2.027,0,0,1,.88.836,2.345,2.345,0,0,1,.286,1.155,2.3,2.3,0,0,1-.385,1.3,2.073,2.073,0,0,1-1.177.836L59.39,44.46H58.037l-1.5-3.1H55.166v3.1Zm1.166-3.982h1.419a1.523,1.523,0,0,0,1.155-.385,1.376,1.376,0,0,0,.374-1,1.323,1.323,0,0,0-.363-.979,1.585,1.585,0,0,0-1.177-.374H55.166Z" transform="translate(-7.098 0.517)" fill="#e4c590"/><path d="M64.652,44.46v-7.7h4.9v.946H65.818v2.4h3.4v.924h-3.4v2.486h3.729v.946Z" transform="translate(-7.098 0.517)" fill="#e4c590"/><path d="M77.438,44.592a3.485,3.485,0,0,1-1.485-.3,2.364,2.364,0,0,1-1-.847,2.444,2.444,0,0,1-.363-1.309h1.232a1.481,1.481,0,0,0,.429,1.045,1.848,1.848,0,0,0,2.222.11,1.054,1.054,0,0,0,.385-.836,1.084,1.084,0,0,0-.187-.66,1.334,1.334,0,0,0-.5-.418,4.379,4.379,0,0,0-.715-.3q-.407-.132-.858-.286a3.239,3.239,0,0,1-1.342-.77,1.752,1.752,0,0,1-.44-1.243,2,2,0,0,1,.3-1.133A2.1,2.1,0,0,1,76,36.9a3.039,3.039,0,0,1,1.331-.275,2.941,2.941,0,0,1,1.309.275,2.13,2.13,0,0,1,.891.77,2.079,2.079,0,0,1,.33,1.133H78.626a1.1,1.1,0,0,0-.154-.561,1.21,1.21,0,0,0-.451-.451,1.4,1.4,0,0,0-.726-.176,1.383,1.383,0,0,0-.913.275.964.964,0,0,0-.352.792.893.893,0,0,0,.264.693,2.119,2.119,0,0,0,.726.407q.462.154,1.056.363A5.252,5.252,0,0,1,79.1,40.6a2.025,2.025,0,0,1,.715.693,1.983,1.983,0,0,1,.275,1.089,2.115,2.115,0,0,1-.3,1.089,2.243,2.243,0,0,1-.891.814A3.152,3.152,0,0,1,77.438,44.592Z" transform="translate(-7.098 0.517)" fill="#e4c590"/><path d="M86.988,44.46V37.706H84.711V36.76H90.42v.946H88.154V44.46Z" transform="translate(-7.098 0.517)" fill="#e4c590"/><path d="M94.138,44.46l2.838-7.7h1.276l2.816,7.7H99.836l-.66-1.881H96.03l-.66,1.881Zm2.222-2.805h2.486L97.6,38.146Z" transform="translate(-7.098 0.517)" fill="#e4c590"/><path d="M108.651,44.592a3.439,3.439,0,0,1-1.5-.319,2.52,2.52,0,0,1-1.056-1,3.388,3.388,0,0,1-.385-1.7V36.76h1.166v4.818a2,2,0,0,0,.484,1.485,2.033,2.033,0,0,0,2.607,0,2,2,0,0,0,.484-1.485V36.76h1.166v4.807a3.246,3.246,0,0,1-.407,1.7,2.494,2.494,0,0,1-1.078,1A3.418,3.418,0,0,1,108.651,44.592Z" transform="translate(-7.098 0.517)" fill="#e4c590"/><path d="M117.076,44.46v-7.7h2.651a3.189,3.189,0,0,1,1.5.308,2.023,2.023,0,0,1,.88.836,2.342,2.342,0,0,1,.286,1.155,2.3,2.3,0,0,1-.385,1.3,2.07,2.07,0,0,1-1.177.836l1.639,3.267h-1.353l-1.5-3.1h-1.375v3.1Zm1.166-3.982h1.419a1.523,1.523,0,0,0,1.155-.385,1.373,1.373,0,0,0,.374-1,1.323,1.323,0,0,0-.363-.979,1.585,1.585,0,0,0-1.177-.374h-1.408Z" transform="translate(-7.098 0.517)" fill="#e4c590"/><path d="M127.234,44.46l2.838-7.7h1.276l2.816,7.7h-1.232l-.66-1.881h-3.146l-.66,1.881Zm2.222-2.805h2.486L130.7,38.146Z" transform="translate(-7.098 0.517)" fill="#e4c590"/><path d="M139.2,44.46v-7.7h1.166l3.861,5.8v-5.8h1.166v7.7h-1.166l-3.861-5.8v5.8Z" transform="translate(-7.098 0.517)" fill="#e4c590"/><path d="M152.717,44.46V37.706H150.44V36.76h5.709v.946h-2.266V44.46Z" transform="translate(-7.098 0.517)" fill="#e4c590"/><path d="M102.232,6.38h5.434v.38h-.19a.69.69,0,0,0-.494.228,1.507,1.507,0,0,0-.38.494,3.122,3.122,0,0,0-.266.646,2.819,2.819,0,0,0-.076.608V28.99a3.5,3.5,0,0,0,.076.684,2.825,2.825,0,0,0,.228.646,4.829,4.829,0,0,0,.38.532.729.729,0,0,0,.532.228h.19v.38h-5.434v-.38h.19a.805.805,0,0,0,.532-.19,2.02,2.02,0,0,0,.38-.532,2.546,2.546,0,0,0,.266-.684,3.5,3.5,0,0,0,.076-.684V8.736a2.818,2.818,0,0,0-.076-.608,2.05,2.05,0,0,0-.266-.646,1.507,1.507,0,0,0-.38-.494.729.729,0,0,0-.532-.228h-.19Z" transform="translate(-2.829 -1.363)" fill="none" stroke="#fff" stroke-width="1"/><path d="M112.46,31.08h.19a.805.805,0,0,0,.532-.19,2.951,2.951,0,0,0,.646-1.178,2.046,2.046,0,0,0,.114-.646V8.736a1.952,1.952,0,0,0-.114-.608,2.027,2.027,0,0,0-.266-.646,1.507,1.507,0,0,0-.38-.494.729.729,0,0,0-.532-.228h-.19V6.38h5.472v.38h-.19a.73.73,0,0,0-.532.228,1.52,1.52,0,0,0-.38.494,4.97,4.97,0,0,0-.266.646,2.883,2.883,0,0,0-.076.608V30.054h8.322a2.265,2.265,0,0,0,1.254-.342,3.058,3.058,0,0,0,.874-.836,3.38,3.38,0,0,0,.532-1.1,3.719,3.719,0,0,0,.19-1.1h.38V31.46H112.46Z" transform="translate(-2.057 -1.363)" fill="none" stroke="#fff" stroke-width="1"/><path d="M85.587,31.08h.19v.38H80.419v-.38h.19a.69.69,0,0,0,.494-.228,2.027,2.027,0,0,0,.38-.532,2.051,2.051,0,0,0,.266-.646,3.519,3.519,0,0,0,.076-.684V8.736a2.837,2.837,0,0,0-.076-.608,2.05,2.05,0,0,0-.266-.646,1.511,1.511,0,0,0-.38-.494.69.69,0,0,0-.494-.228h-.19V6.38h6.612a9.886,9.886,0,0,1,5.852,1.482,5.014,5.014,0,0,1,2.09,4.37,6.17,6.17,0,0,1-.494,2.546,5.884,5.884,0,0,1-1.254,1.862,6.7,6.7,0,0,1-1.9,1.254,10.839,10.839,0,0,1-2.28.684l2.736,4.18q.988,1.52,2.014,3,1.026,1.444,2.014,3,.266.38.57.8.342.418.684.76a4.953,4.953,0,0,0,.76.57,2,2,0,0,0,.836.19v.38H97.025a4.141,4.141,0,0,1-2.508-.722,7.455,7.455,0,0,1-1.6-1.748q-1.71-2.508-3.42-5.092-1.672-2.584-3.344-5.092-.418-.038-.912-.076-.456-.076-.874-.152V28.99a3.519,3.519,0,0,0,.076.684,2.8,2.8,0,0,0,.228.646,4.829,4.829,0,0,0,.38.532A.729.729,0,0,0,85.587,31.08ZM84.371,7.672v9.652h.19q.3.038.95.076h1.672a6.623,6.623,0,0,0,1.672-.228,5.183,5.183,0,0,0,1.672-.836,4.583,4.583,0,0,0,1.292-1.558,4.852,4.852,0,0,0,.532-2.394,4.385,4.385,0,0,0-.57-2.356,3.8,3.8,0,0,0-1.52-1.444,6.569,6.569,0,0,0-2.318-.722,21.9,21.9,0,0,0-3-.19Z" transform="translate(-4.016 -1.363)" fill="none" stroke="#fff" stroke-width="1"/><path d="M112.46,31.08h.19a.805.805,0,0,0,.532-.19,2.951,2.951,0,0,0,.646-1.178,2.046,2.046,0,0,0,.114-.646V8.736a1.952,1.952,0,0,0-.114-.608,2.027,2.027,0,0,0-.266-.646,1.507,1.507,0,0,0-.38-.494.729.729,0,0,0-.532-.228h-.19V6.38h5.472v.38h-.19a.73.73,0,0,0-.532.228,1.52,1.52,0,0,0-.38.494,4.97,4.97,0,0,0-.266.646,2.883,2.883,0,0,0-.076.608V30.054h8.322a2.265,2.265,0,0,0,1.254-.342,3.058,3.058,0,0,0,.874-.836,3.38,3.38,0,0,0,.532-1.1,3.719,3.719,0,0,0,.19-1.1h.38V31.46H112.46Z" transform="translate(17.943 -1.363)" fill="none" stroke="#fff" stroke-width="1"/><path d="M70.644,18.236h5.434v.38h-.19a.729.729,0,0,0-.532.228,1.511,1.511,0,0,0-.38.494,4.932,4.932,0,0,0-.266.646,2.838,2.838,0,0,0-.076.608V30.776a10.429,10.429,0,0,1-1.558.456q-.874.19-1.824.3-.95.152-1.938.228t-1.824.076a14.49,14.49,0,0,1-5.966-1.14A12.09,12.09,0,0,1,54.8,23.556a14.087,14.087,0,0,1,0-9.348,12.194,12.194,0,0,1,2.508-4.142A12.607,12.607,0,0,1,61.562,7.14,15.069,15.069,0,0,1,67.68,6a12.6,12.6,0,0,1,2.47.228q1.14.228,2.014.418.494.114.836.228a3.381,3.381,0,0,0,.646.076h.342v4.028h-.38a3.717,3.717,0,0,0-.912-1.9,4.342,4.342,0,0,0-1.52-1.1,6.515,6.515,0,0,0-1.862-.494,11.334,11.334,0,0,0-1.786-.152,11.1,11.1,0,0,0-4.94,1.026,9.85,9.85,0,0,0-3.42,2.584,10.676,10.676,0,0,0-1.976,3.61,12.653,12.653,0,0,0-.646,3.952,12.053,12.053,0,0,0,.836,4.37,12.75,12.75,0,0,0,2.356,3.838,12.317,12.317,0,0,0,3.648,2.736,11.043,11.043,0,0,0,4.788,1.026,13.012,13.012,0,0,0,1.786-.152,6.642,6.642,0,0,0,2.128-.8v-8.93a2.838,2.838,0,0,0-.076-.608,2.051,2.051,0,0,0-.266-.646,1.511,1.511,0,0,0-.38-.494.729.729,0,0,0-.532-.228h-.19Z" transform="translate(-4.598 -1.983)" fill="none" stroke="#fff" stroke-width="1"/></svg>